# xmcd CD database file
#
# Track frame offsets:
#	182
#	23007
#	49007
#	69995
#	92170
#	114720
#	142395
#
# Disc length: 2224 seconds
#
# Revision: 2
# Processed by: cddbd v1.5.1PL2 Copyright (c) Steve Scherf et al.
# Submitted via: CDex 1.51
#
DISCID=6008ae07
DTITLE=Johnny Guitar Watson - A Real Mother
DYEAR=1977
DGENRE=Funk
TTITLE0=A Real Mother For Ya
TTITLE1=Nothing Left To Be Desired
TTITLE2=Your Love Is My Love
TTITLE3=The Real Deal
TTITLE4=Tarzan
TTITLE5=I Wanna Thank You
TTITLE6=Lover Jones
EXTD=YEAR: 1977
EXTT0=
EXTT1=
EXTT2=
EXTT3=
EXTT4=
EXTT5=
EXTT6=
PLAYORDER=
